<mxfile host="app.diagrams.net" agent="Mozilla/5.0 (Windows NT 10.0; Win64; x64) AppleWebKit/537.36 (KHTML, like Gecko) Chrome/132.0.0.0 Safari/537.36" version="26.0.9">
  <diagram name="Landing-page" id="b520641d-4fe3-3701-9064-5fc419738815">
    <mxGraphModel dx="1235" dy="1464" grid="1" gridSize="10" guides="1" tooltips="1" connect="1" arrows="1" fold="1" page="1" pageScale="1" pageWidth="1100" pageHeight="850" background="none" math="0" shadow="0">
      <root>
        <mxCell id="0" />
        <mxCell id="1" parent="0" />
        <mxCell id="k6F-T_xbN-OqJJXAHrD0-1" style="edgeStyle=orthogonalEdgeStyle;rounded=0;orthogonalLoop=1;jettySize=auto;html=1;entryX=0.25;entryY=0;entryDx=0;entryDy=0;" edge="1" parent="1" source="RI0D53-IFedwznS1-Isa-2" target="jUSC3CbDbpIPfk2FlNFD-1">
          <mxGeometry relative="1" as="geometry" />
        </mxCell>
        <mxCell id="k6F-T_xbN-OqJJXAHrD0-2" style="edgeStyle=orthogonalEdgeStyle;rounded=0;orthogonalLoop=1;jettySize=auto;html=1;" edge="1" parent="1" source="RI0D53-IFedwznS1-Isa-2" target="k6F-T_xbN-OqJJXAHrD0-3">
          <mxGeometry relative="1" as="geometry">
            <mxPoint x="970" y="-370" as="targetPoint" />
          </mxGeometry>
        </mxCell>
        <mxCell id="RI0D53-IFedwznS1-Isa-2" value="UI component library" style="rounded=1;whiteSpace=wrap;html=1;fillColor=#f8cecc;strokeColor=#b85450;fontSize=15;fontStyle=1;fontColor=#FF3333;" parent="1" vertex="1">
          <mxGeometry x="230" y="-630" width="460" height="60" as="geometry" />
        </mxCell>
        <mxCell id="RI0D53-IFedwznS1-Isa-4" value="&lt;font style=&quot;font-size: 14px;&quot;&gt;&lt;b&gt;Frontend&lt;/b&gt;&lt;/font&gt;" style="swimlane;fontStyle=0;childLayout=stackLayout;horizontal=1;startSize=30;horizontalStack=0;resizeParent=1;resizeParentMax=0;resizeLast=0;collapsible=1;marginBottom=0;whiteSpace=wrap;html=1;fillColor=#f5f5f5;strokeColor=#666666;fontColor=#333333;" parent="1" vertex="1">
          <mxGeometry x="70" y="-100" width="140" height="120" as="geometry" />
        </mxCell>
        <mxCell id="RI0D53-IFedwznS1-Isa-5" value="Nextjs" style="text;strokeColor=none;fillColor=none;align=left;verticalAlign=middle;spacingLeft=4;spacingRight=4;overflow=hidden;points=[[0,0.5],[1,0.5]];portConstraint=eastwest;rotatable=0;whiteSpace=wrap;html=1;" parent="RI0D53-IFedwznS1-Isa-4" vertex="1">
          <mxGeometry y="30" width="140" height="30" as="geometry" />
        </mxCell>
        <mxCell id="RI0D53-IFedwznS1-Isa-6" value="Item 2" style="text;strokeColor=none;fillColor=none;align=left;verticalAlign=middle;spacingLeft=4;spacingRight=4;overflow=hidden;points=[[0,0.5],[1,0.5]];portConstraint=eastwest;rotatable=0;whiteSpace=wrap;html=1;" parent="RI0D53-IFedwznS1-Isa-4" vertex="1">
          <mxGeometry y="60" width="140" height="30" as="geometry" />
        </mxCell>
        <mxCell id="RI0D53-IFedwznS1-Isa-7" value="Item 3" style="text;strokeColor=none;fillColor=none;align=left;verticalAlign=middle;spacingLeft=4;spacingRight=4;overflow=hidden;points=[[0,0.5],[1,0.5]];portConstraint=eastwest;rotatable=0;whiteSpace=wrap;html=1;" parent="RI0D53-IFedwznS1-Isa-4" vertex="1">
          <mxGeometry y="90" width="140" height="30" as="geometry" />
        </mxCell>
        <mxCell id="RI0D53-IFedwznS1-Isa-8" value="&lt;b&gt;&lt;font style=&quot;font-size: 14px;&quot;&gt;Backend&lt;/font&gt;&lt;/b&gt;" style="swimlane;fontStyle=0;childLayout=stackLayout;horizontal=1;startSize=30;horizontalStack=0;resizeParent=1;resizeParentMax=0;resizeLast=0;collapsible=1;marginBottom=0;whiteSpace=wrap;html=1;fillColor=#f5f5f5;fontColor=#333333;strokeColor=#666666;" parent="1" vertex="1">
          <mxGeometry x="750" y="-100" width="140" height="120" as="geometry" />
        </mxCell>
        <mxCell id="RI0D53-IFedwznS1-Isa-9" value="Mysql" style="text;strokeColor=none;fillColor=none;align=left;verticalAlign=middle;spacingLeft=4;spacingRight=4;overflow=hidden;points=[[0,0.5],[1,0.5]];portConstraint=eastwest;rotatable=0;whiteSpace=wrap;html=1;" parent="RI0D53-IFedwznS1-Isa-8" vertex="1">
          <mxGeometry y="30" width="140" height="30" as="geometry" />
        </mxCell>
        <mxCell id="RI0D53-IFedwznS1-Isa-10" value="Drizzle" style="text;strokeColor=none;fillColor=none;align=left;verticalAlign=middle;spacingLeft=4;spacingRight=4;overflow=hidden;points=[[0,0.5],[1,0.5]];portConstraint=eastwest;rotatable=0;whiteSpace=wrap;html=1;" parent="RI0D53-IFedwznS1-Isa-8" vertex="1">
          <mxGeometry y="60" width="140" height="30" as="geometry" />
        </mxCell>
        <mxCell id="RI0D53-IFedwznS1-Isa-11" value="Item 3" style="text;strokeColor=none;fillColor=none;align=left;verticalAlign=middle;spacingLeft=4;spacingRight=4;overflow=hidden;points=[[0,0.5],[1,0.5]];portConstraint=eastwest;rotatable=0;whiteSpace=wrap;html=1;" parent="RI0D53-IFedwznS1-Isa-8" vertex="1">
          <mxGeometry y="90" width="140" height="30" as="geometry" />
        </mxCell>
        <mxCell id="RI0D53-IFedwznS1-Isa-20" value="TypeScript" style="rounded=1;whiteSpace=wrap;html=1;fillColor=light-dark(#E5CCFF,var(--ge-dark-color, #121212));labelBorderColor=none;textShadow=0;shadow=1;glass=0;dashed=1;strokeWidth=1;perimeterSpacing=1;" parent="1" vertex="1">
          <mxGeometry x="460" y="-70" width="100" height="40" as="geometry" />
        </mxCell>
        <mxCell id="RI0D53-IFedwznS1-Isa-21" style="edgeStyle=orthogonalEdgeStyle;rounded=0;orthogonalLoop=1;jettySize=auto;html=1;entryX=0.971;entryY=0.267;entryDx=0;entryDy=0;entryPerimeter=0;" parent="1" source="RI0D53-IFedwznS1-Isa-20" target="RI0D53-IFedwznS1-Isa-6" edge="1">
          <mxGeometry relative="1" as="geometry" />
        </mxCell>
        <mxCell id="RI0D53-IFedwznS1-Isa-22" style="edgeStyle=orthogonalEdgeStyle;rounded=0;orthogonalLoop=1;jettySize=auto;html=1;entryX=-0.011;entryY=0.16;entryDx=0;entryDy=0;entryPerimeter=0;" parent="1" source="RI0D53-IFedwznS1-Isa-20" target="RI0D53-IFedwznS1-Isa-10" edge="1">
          <mxGeometry relative="1" as="geometry" />
        </mxCell>
        <mxCell id="RI0D53-IFedwznS1-Isa-24" value="&lt;font style=&quot;font-size: 15px;&quot;&gt;&lt;b&gt;Monorepo Code base&lt;/b&gt;&lt;/font&gt;" style="text;html=1;align=center;verticalAlign=middle;whiteSpace=wrap;rounded=0;fillColor=#CCCCCC;fontColor=#333333;strokeColor=#666666;" parent="1" vertex="1">
          <mxGeometry x="290" y="-240" width="260" height="30" as="geometry" />
        </mxCell>
        <mxCell id="RI0D53-IFedwznS1-Isa-26" value="Look for some open-source code-base" style="text;html=1;align=center;verticalAlign=middle;whiteSpace=wrap;rounded=0;fillColor=#b1ddf0;strokeColor=#10739e;" parent="1" vertex="1">
          <mxGeometry x="250" y="-170" width="360" height="30" as="geometry" />
        </mxCell>
        <mxCell id="jUSC3CbDbpIPfk2FlNFD-1" value="&lt;font style=&quot;font-size: 16px;&quot;&gt;Landing Page&lt;/font&gt;" style="rounded=1;whiteSpace=wrap;html=1;fillColor=#d5e8d4;strokeColor=#82b366;" parent="1" vertex="1">
          <mxGeometry x="275" y="-310" width="290" height="30" as="geometry" />
        </mxCell>
        <mxCell id="k6F-T_xbN-OqJJXAHrD0-8" style="edgeStyle=orthogonalEdgeStyle;rounded=0;orthogonalLoop=1;jettySize=auto;html=1;entryX=0.5;entryY=0;entryDx=0;entryDy=0;" edge="1" parent="1" source="k6F-T_xbN-OqJJXAHrD0-3" target="k6F-T_xbN-OqJJXAHrD0-4">
          <mxGeometry relative="1" as="geometry" />
        </mxCell>
        <mxCell id="k6F-T_xbN-OqJJXAHrD0-3" value="&lt;font style=&quot;font-size: 15px;&quot;&gt;Feature-enrich&lt;/font&gt;" style="rounded=0;whiteSpace=wrap;html=1;fillColor=#e1d5e7;strokeColor=#9673a6;" vertex="1" parent="1">
          <mxGeometry x="1180" y="-630" width="210" height="60" as="geometry" />
        </mxCell>
        <mxCell id="k6F-T_xbN-OqJJXAHrD0-4" value="&lt;font style=&quot;font-size: 16px;&quot;&gt;Styles-Support&lt;/font&gt;" style="swimlane;fontStyle=0;childLayout=stackLayout;horizontal=1;startSize=30;horizontalStack=0;resizeParent=1;resizeParentMax=0;resizeLast=0;collapsible=1;marginBottom=0;whiteSpace=wrap;html=1;" vertex="1" parent="1">
          <mxGeometry x="1215" y="-460" width="140" height="120" as="geometry" />
        </mxCell>
        <mxCell id="k6F-T_xbN-OqJJXAHrD0-5" value="&lt;font style=&quot;font-size: 14px;&quot;&gt;.css&lt;/font&gt;" style="text;strokeColor=none;fillColor=none;align=left;verticalAlign=middle;spacingLeft=4;spacingRight=4;overflow=hidden;points=[[0,0.5],[1,0.5]];portConstraint=eastwest;rotatable=0;whiteSpace=wrap;html=1;" vertex="1" parent="k6F-T_xbN-OqJJXAHrD0-4">
          <mxGeometry y="30" width="140" height="30" as="geometry" />
        </mxCell>
        <mxCell id="k6F-T_xbN-OqJJXAHrD0-6" value="&lt;font style=&quot;font-size: 14px;&quot;&gt;.module.css&lt;/font&gt;" style="text;strokeColor=none;fillColor=none;align=left;verticalAlign=middle;spacingLeft=4;spacingRight=4;overflow=hidden;points=[[0,0.5],[1,0.5]];portConstraint=eastwest;rotatable=0;whiteSpace=wrap;html=1;" vertex="1" parent="k6F-T_xbN-OqJJXAHrD0-4">
          <mxGeometry y="60" width="140" height="30" as="geometry" />
        </mxCell>
        <mxCell id="k6F-T_xbN-OqJJXAHrD0-7" value="&lt;font style=&quot;font-size: 14px;&quot;&gt;Tailwind-utility&lt;/font&gt;" style="text;strokeColor=none;fillColor=none;align=left;verticalAlign=middle;spacingLeft=4;spacingRight=4;overflow=hidden;points=[[0,0.5],[1,0.5]];portConstraint=eastwest;rotatable=0;whiteSpace=wrap;html=1;" vertex="1" parent="k6F-T_xbN-OqJJXAHrD0-4">
          <mxGeometry y="90" width="140" height="30" as="geometry" />
        </mxCell>
      </root>
    </mxGraphModel>
  </diagram>
</mxfile>
